<svg width="153" height="60" viewBox="0 0 153 60" fill="none" xmlns="http://www.w3.org/2000/svg">
<path d="M59.4626 34.8099V25.1901L79.131 25.1901V34.8099L59.4626 34.8099Z" fill="white"/>
<path d="M49.8571 25.1901V15.5703L59.4626 15.5703V25.1901L49.8571 25.1901Z" fill="white"/>
<path d="M79.131 44.4298V34.8099L88.7365 34.81V44.4298L79.131 44.4298Z" fill="white"/>
<path d="M135.803 42.5974H147.173L143.332 53.9852H131.961L135.803 42.5974Z" fill="white"/>
<path d="M5.94629 5.95044L5.94629 15.5703H20.903V48.1736L26.7702 54.0496H32.6375L79.131 54.0496V44.4298H32.6375V15.5703H47.5701V5.95044H5.94629Z" fill="white"/>
<path d="M59.4626 5.95044V15.5703L93.8801 15.5703L107.136 54.0496H122.939L139.508 5.95044H126.224L115.241 41.1793H114.833L103.851 5.95044H90.5661H59.4626Z" fill="white"/>
</svg>
