<svg width="58" height="24" viewBox="0 0 58 24" fill="none" xmlns="http://www.w3.org/2000/svg">
<path d="M22.7828 13.7379V10.2621L29.935 10.2621V13.7379L22.7828 13.7379Z" fill="#0E0E0E"/>
<path d="M19.2899 10.2621V6.7862L22.7828 6.7862V10.2621L19.2899 10.2621Z" fill="#0E0E0E"/>
<path d="M29.935 17.2138V13.7379L33.4279 13.7379V17.2138L29.935 17.2138Z" fill="#0E0E0E"/>
<path d="M50.543 16.5517H54.6778L53.2809 20.6664H49.146L50.543 16.5517Z" fill="#0E0E0E"/>
<path d="M50.543 16.5517H54.6778L53.2809 20.6664H49.146L50.543 16.5517Z" fill="#D01D26"/>
<path d="M3.3222 3.31033V6.7862L8.76102 6.7862V18.5665L10.8946 20.6896H13.0281L29.935 20.6896V17.2138H13.0281V6.7862H18.4582V3.31033H3.3222Z" fill="#0E0E0E"/>
<path d="M22.7828 3.31033V6.7862L35.2983 6.7862L40.1186 20.6896H45.865L51.8905 3.31033H47.0597L43.066 16.0393H42.9177L38.924 3.31033H34.0932H22.7828Z" fill="#0E0E0E"/>
</svg>
